max v2;#N vpatcher 114 294 988 798;#P origin 0 -518;#P window setfont "Sans Serif" 9.;#P hidden newex 426 280 61 196617 prepend set;#P window linecount 2;#P hidden newex 237 246 313 196617 OSC-route /smooth /osc-on /osc-name /osc-min /osc-max /midi-on /midi-out /midi-range /midi-ctl /midi-dur /midi-channel;#P window linecount 1;#P hidden newex 237 221 100 196617 r internal-messages;#P objectname receive;#N vpatcher 111 44 292 319;#P outlet 22 207 15 0;#P window setfont "Sans Serif" 9.;#P newex 22 167 27 196617 + 0.;#P inlet 96 37 15 0;#P newex 79 114 27 196617 * 0.;#P newex 39 84 29 196617 !- 1.;#P inlet 22 78 15 0;#P newex 22 115 27 196617 * 1.;#P connect 1 0 0 0;#P connect 0 0 5 0;#P connect 5 0 6 0;#P connect 4 0 2 0;#P connect 2 0 0 1;#P connect 3 0 5 1;#P fasten 5 0 3 0 27 196 135 196 135 96;#P connect 4 0 3 1;#P pop;#P hidden newobj 3 -64 75 196617 p smooth-stuff;#P user jsui 67 2 19 19 1 0 0 none;#P objectname jsui;#P hidden newex 142 109 64 196617 arj.scale;#P hidden newex 27 109 64 196617 arj.scale;#P hidden message 399 -37 53 196617 set 0 127;#P hidden newex 273 113 133 196617 autopattr mgt @autoname 1;#X prestore XControlNum 1 0 1;#X prestore XControlNum[1] 1 0 1;#X prestore XRange 2 0 0 127;#X prestore flonum 1 0 0.;#X prestore flonum[1] 1 0 1.;#X prestore flonum[2] 1 0 0.;#X prestore flonum[3] 1 0 0.6;#X prestore jsui 1 0 0;#X prestore multiSlider 1 0 0.;#X prestore number 1 0 0;#X prestore textedit 1 0 c2;#X prestore toggle 1 0 1;#X prestore toggle[1] 1 0 0;#X prestore ubumenu 1 0 ctlout;#P objectname mgt;#P hidden message 353 -37 14 196617 0;#P hidden newex 353 -62 49 196617 deferlow;#P hidden message 379 -37 23 196617 0.6;#P hidden message 366 -37 14 196617 1;#P hidden newex 353 -85 45 196617 loadbang;#P flonum 524 3 35 9 0 0 32 3 0 0 0 255 255 255 222 222 222 0 0 0;#P objectname flonum[3];#N vpatcher 211 120 553 475;#P window setfont "Sans Serif" 9.;#P newex 77 191 62 196617 speedlim 100;#P newex 204 95 34 196617 * 1000;#N comlet Note duration;#P inlet 204 23 15 0;#N comlet MIDI channel;#P inlet 287 23 15 0;#N comlet Controller number;#P inlet 179 23 15 0;#N comlet Value;#P inlet 92 23 15 0;#N comlet ctlout \, noteout \, bendout;#P inlet 62 23 15 0;#P newex 189 289 40 196617 noteout;#P newex 257 289 40 196617 bendout;#P newex 62 289 40 196617 ctlout;#P newex 12 258 44 196617 r midiport;#P newex 62 78 40 196617 gate 3;#P newex 62 54 27 196617 + 1;#P newex 130 225 84 196617 makenote 60 1000;#P connect 7 0 1 0;#P connect 1 0 2 0;#P fasten 3 0 4 0 17 282 67 282;#P lcolor 13;#P connect 2 0 4 0;#P connect 2 1 13 0;#P connect 9 0 4 1;#P connect 8 0 2 1;#P connect 10 0 4 2;#P fasten 13 0 0 0 82 217 135 217;#P fasten 3 0 6 0 17 282 194 282;#P lcolor 13;#P connect 0 0 6 0;#P connect 11 0 12 0;#P connect 12 0 0 2;#P connect 0 1 6 1;#P connect 10 0 6 2;#P fasten 2 2 5 0 97 184 262 184;#P fasten 3 0 5 0 17 282 262 282;#P lcolor 13;#P connect 10 0 5 1;#P pop;#P hidden newobj 459 37 66 196617 p midi-stuff;#N vpatcher 15 55 222 290;#P window setfont "Sans Serif" 9.;#P newex 35 53 55 196617 route text;#P inlet 35 28 15 0;#P inlet 126 28 15 0;#P newex 68 155 42 196617 route 0;#P newex 126 63 27 196617 t b f;#P newex 68 130 55 196617 pack 0 l 0.;#P newex 68 182 45 196617 s to-osc;#P newex 35 84 63 196617 sprintf /%s;#P connect 6 0 7 0;#P connect 7 0 0 0;#P connect 3 0 2 0;#P connect 2 0 4 0;#P connect 4 0 1 0;#P connect 0 0 2 1;#P connect 3 1 2 2;#P connect 5 0 3 0;#P pop;#P hidden newobj 186 28 59 196617 p osc-stuff;#P user rslider 368 3 83 16 128 1 0 0 0;#P objectname XRange;#P number 454 3 34 9 0 0 37 3 0 0 0 255 225 75 222 222 222 0 0 0;#P objectname number;#P number 558 3 34 9 0 127 39 3 0 0 0 255 255 255 222 222 222 0 0 0;#P objectname XControlNum[1];#P number 491 3 34 9 0 127 39 3 0 0 0 255 255 255 222 222 222 0 0 0;#P objectname XControlNum;#P toggle 275 4 13 0;#P objectname toggle[1];#P hidden newex 142 76 27 196617 gate;#P comment 287 4 29 196617 MIDI;#N comlet Input value;#P hidden inlet 3 -87 15 0;#P user ubumenu 315 3 50 196617 0 1 1 0;#X setrgb 0 0 0 90 180 150 234 234 234 4 4 4 141 141 141 112 112 112;#X add ctlout;#X add noteout;#X add bendout;#X prefix_set 0 0 <none> 0;#X pattrmode 1;#P objectname ubumenu;#P toggle 92 4 13 0;#P objectname toggle;#P hidden newex 27 76 27 196617 gate;#P hidden newex 131 -30 27 196617 t b l;#P hidden newex 131 -53 82 196617 sprintf set c%ld;#P user textedit 131 3 155 18 32948 3 9 c2;#P objectname textedit;#N comlet Controller number;#P hidden inlet 131 -74 15 0;#P user panel 272 0 324 22;#X brgb 255 255 255;#X frgb 0 0 0;#X border 1;#X rounded 0;#X shadow 0;#X done;#P hidden newex 54 137 42 196617 pak 0 0;#P hidden message 54 159 88 196617 setminmax \$1 \$2;#P user multiSlider 3 3 57 15 0. 1. 1 2936 15 0 0 2 0 0 0;#M frgb 90 180 150;#M brgb 255 255 255;#M rgb2 127 127 127;#M rgb3 0 0 0;#M rgb4 37 52 91;#M rgb5 74 105 182;#M rgb6 112 158 18;#M rgb7 149 211 110;#M rgb8 187 9 201;#M rgb9 224 62 37;#M rgb10 7 114 128;#P objectname multiSlider;#P hidden newex 3 -38 52 196617 change 0.;#P flonum 230 3 35 9 0 0 36 3 0 0 0 255 226 75 222 222 222 0 0 0;#P objectname flonum[2];#P flonum 192 3 35 9 0 0 32 3 0 0 0 255 255 255 222 222 222 0 0 0;#P objectname flonum[1];#P flonum 158 3 35 9 0 0 32 3 0 0 0 255 255 255 222 222 222 0 0 0;#P objectname flonum;#P user panel 0 0 64 22;#X brgb 255 255 255;#X frgb 0 0 0;#X border 1;#X rounded 0;#X shadow 0;#X done;#P comment 103 4 26 196617 OSC;#P user panel 89 0 180 22;#X brgb 255 255 255;#X frgb 0 0 0;#X border 1;#X rounded 0;#X shadow 0;#X done;#P hidden connect 18 0 39 0;#P hidden connect 39 0 6 0;#P hidden connect 6 0 7 0;#P hidden fasten 8 0 7 0 59 184 -12 184 -12 -4 8 -4;#P lcolor 5;#P hidden connect 16 0 15 0;#P lcolor 6;#P hidden connect 15 0 36 0;#P hidden fasten 6 0 15 1 8 -20 -5 -20 -5 70 49 70;#P hidden connect 36 1 9 0;#P hidden connect 9 0 8 0;#P hidden connect 3 0 36 3;#P hidden connect 41 0 38 0;#P lcolor 3;#P hidden connect 38 0 39 1;#P hidden connect 4 0 36 4;#P hidden connect 36 2 9 1;#P hidden connect 41 1 16 0;#P lcolor 3;#P hidden connect 11 0 13 0;#P hidden connect 13 0 14 0;#P hidden connect 14 1 12 0;#P hidden connect 14 0 12 0;#P hidden connect 21 0 20 0;#P lcolor 6;#P hidden connect 20 0 37 0;#P hidden connect 41 3 3 0;#P lcolor 3;#P hidden fasten 6 0 20 1 8 -20 -5 -20 -5 70 164 70;#P hidden connect 25 0 37 3;#P hidden fasten 12 0 26 0 136 23 191 23;#P hidden connect 30 0 4 0;#P hidden connect 41 4 4 0;#P lcolor 3;#P hidden connect 25 1 37 4;#P hidden fasten 36 0 5 0 32 179 608 179 608 168 608 -11 235 -11;#P hidden connect 5 0 26 1;#P hidden connect 40 0 41 0;#P hidden connect 41 5 21 0;#P lcolor 3;#P hidden connect 33 0 17 0;#P hidden connect 41 6 17 0;#P lcolor 3;#P hidden connect 29 0 32 0;#P hidden connect 32 0 33 0;#P hidden connect 32 0 30 0;#P hidden connect 35 0 25 0;#P hidden connect 42 0 25 0;#P lcolor 3;#P hidden connect 32 0 31 0;#P hidden connect 32 0 35 0;#P hidden connect 41 7 42 0;#P hidden fasten 37 0 24 0 147 141 597 141 597 -5 459 -5;#P hidden fasten 17 0 27 0 320 30 464 30;#P hidden connect 24 0 27 1;#P hidden connect 22 0 27 2;#P hidden connect 30 0 22 0;#P hidden connect 41 8 22 0;#P lcolor 3;#P hidden connect 28 0 27 3;#P hidden connect 23 0 27 4;#P hidden connect 31 0 28 0;#P hidden connect 41 9 28 0;#P lcolor 3;#P hidden connect 41 10 23 0;#P lcolor 3;#P hidden connect 30 0 23 0;#P pop;