max v2;#N vpatcher 181 58 807 592;#P origin 12 -226;#P window setfont "Sans Serif" 9.;#P window linecount 1;#P hidden newex 1143 133 50 196617 arj.route;#P hidden newex 1090 133 50 196617 arj.route;#P hidden newex 1025 133 50 196617 arj.route;#P hidden newex 985 133 50 196617 arj.route;#P hidden number 1184 71 18 9 0 0 160 3 0 0 0 221 221 221 222 222 222 0 0 0;#P objectname number[18];#P hidden number 1167 71 18 9 0 0 160 3 0 0 0 221 221 221 222 222 222 0 0 0;#P objectname number[19];#P hidden number 1150 71 18 9 0 0 160 3 0 0 0 221 221 221 222 222 222 0 0 0;#P objectname number[20];#P hidden number 1133 71 18 9 0 0 160 3 0 0 0 221 221 221 222 222 222 0 0 0;#P objectname number[21];#P bpatcher 15 399 605 24 0 0 arj.min-max-scaling.mxt 0;#P objectname arj.min-max-scaling.pat[17];#P bpatcher 15 420 605 24 0 0 arj.min-max-scaling.mxt 0;#P objectname arj.min-max-scaling.pat[18];#P bpatcher 15 441 605 24 0 0 arj.min-max-scaling.mxt 0;#P objectname arj.min-max-scaling.pat[19];#P bpatcher 15 462 605 24 0 0 arj.min-max-scaling.mxt 0;#P objectname arj.min-max-scaling.pat[20];#P user incdec 402 491 15 15 0 0;#P hidden newex 487 607 41 196617 t write;#P hidden newex 541 608 35 196617 t read;#P message 552 491 48 196617 Open file;#P message 504 491 49 196617 Save file;#P message 471 491 29 196617 Load;#P message 438 491 34 196617 Store;#P hidden message 660 608 75 196617 storagewindow;#P hidden message 588 608 68 196617 clientwindow;#P hidden newex 399 638 85 196617 pattrstorage mgt;#X autorestore mgt.xml;#X client_rect 52 59 692 299;#X storage_rect 0 0 640 240;#P objectname mgt[1];#P hidden button 399 587 15 0;#P hidden button 430 565 15 0;#P hidden message 430 608 48 196617 store \$1;#P hidden newex 430 587 27 196617 i;#P number 416 491 18 9 1 99 35 3 0 0 0 221 221 221 222 222 222 0 0 0;#P objectname number[17];#P hidden newex 399 608 27 196617 i;#P comment 367 492 39 196617 Preset;#P user panel 364 486 243 25;#X brgb 191 191 191;#X frgb 0 0 0;#X border 1;#X rounded 0;#X shadow 0;#X done;#P hidden newex 1012 266 128 196617 print detected-controllers;#P user jsui 83 45 19 19 1 0 0 none;#P objectname jsui;#P hidden newex 286 521 85 196617 prepend /smooth;#P hidden newex 458 521 85 196617 prepend /midi-on;#P hidden newex 373 521 83 196617 prepend /osc-on;#P hidden newex 286 549 100 196617 s internal-messages;#P hidden number 1012 219 33 9 0 0 8224 3 0 0 0 221 221 221 222 222 222 0 0 0;#P objectname number[16];#P hidden message 900 217 68 196617 Reset scaling;#P hidden button 900 240 15 0;#P hidden newex 900 265 75 196617 s reset-scaling;#P hidden button 833 235 15 0;#P hidden newex 833 265 55 196617 s clear-all;#N thispatcher;#Q end;#P hidden newobj 23 551 60 196617 thispatcher;#P hidden newex 25 572 45 196617 loadbang;#P hidden newex 673 417 45 196617 midiinfo;#P hidden message 673 397 14 196617 1;#P toggle 25 491 13 0;#P objectname toggle[2];#P message 95 491 45 196617 Settings;#N vpatcher 313 196 606 465;#P window setfont "Sans Serif" 9.;#P newex 49 33 45 196617 loadbang;#P outlet 169 224 15 0;#P outlet 40 224 15 0;#P outlet 102 224 15 0;#P newex 49 59 49 196617 deferlow;#P message 169 155 14 196617 1;#P message 40 155 14 196617 0;#P newex 49 84 66 196617 t b b b b b;#P message 63 155 40 196617 poll 10;#P message 102 155 32 196617 menu;#P message 133 155 25 196617 info;#P connect 3 2 4 0;#P connect 4 0 8 0;#P connect 10 0 6 0;#P connect 6 0 3 0;#P connect 3 1 2 0;#P connect 3 3 1 0;#P connect 0 0 7 0;#P connect 1 0 7 0;#P connect 2 0 7 0;#P connect 3 4 0 0;#P connect 3 0 5 0;#P connect 5 0 9 0;#P pop;#P hidden newobj 355 -8 82 196617 p loadbang-stuff;#P message 555 17 27 196617 Help;#N vpatcher 358 44 846 479;#P window setfont "Sans Serif" 9.;#N thispatcher;#Q end;#P hidden newobj 297 414 60 196617 thispatcher;#P hidden newex 361 414 45 196617 loadbang;#P hidden message 274 366 169 196617 window flags nogrow \, window exec;#P hidden message 274 383 159 196617 window flags grow \, window exec;#P newex 180 108 86 196617 udpreceive 5678;#B color 9;#P objectname [1];#P flonum 426 298 34 9 0 0 0 3 0 0 0 221 221 221 222 222 222 0 0 0;#P flonum 386 298 34 9 0 0 0 3 0 0 0 221 221 221 222 222 222 0 0 0;#P flonum 346 298 34 9 0 0 0 3 0 0 0 221 221 221 222 222 222 0 0 0;#P flonum 306 298 34 9 0 0 0 3 0 0 0 221 221 221 222 222 222 0 0 0;#P flonum 266 298 34 9 0 0 0 3 0 0 0 221 221 221 222 222 222 0 0 0;#P flonum 226 298 34 9 0 0 0 3 0 0 0 221 221 221 222 222 222 0 0 0;#P flonum 186 298 34 9 0 0 0 3 0 0 0 221 221 221 222 222 222 0 0 0;#P flonum 146 298 34 9 0 0 0 3 0 0 0 221 221 221 222 222 222 0 0 0;#P flonum 106 298 34 9 0 0 0 3 0 0 0 221 221 221 222 222 222 0 0 0;#P flonum 406 271 34 9 0 0 0 3 0 0 0 221 221 221 222 222 222 0 0 0;#P flonum 366 271 34 9 0 0 0 3 0 0 0 221 221 221 222 222 222 0 0 0;#P flonum 326 271 34 9 0 0 0 3 0 0 0 221 221 221 222 222 222 0 0 0;#P flonum 286 271 34 9 0 0 0 3 0 0 0 221 221 221 222 222 222 0 0 0;#P flonum 246 271 34 9 0 0 0 3 0 0 0 221 221 221 222 222 222 0 0 0;#P flonum 206 271 34 9 0 0 0 3 0 0 0 221 221 221 222 222 222 0 0 0;#P flonum 166 271 34 9 0 0 0 3 0 0 0 221 221 221 222 222 222 0 0 0;#P flonum 126 271 34 9 0 0 0 3 0 0 0 221 221 221 222 222 222 0 0 0;#P comment 57 143 28 196617 none;#P comment 12 174 75 196617 ethernet (UDP);#P comment 21 158 69 196617 send/receive;#P user radiogroup 86 142 18 32;#X size 3;#X offset 16;#X inactive 0;#X itemtype 0;#X flagmode 0;#X set 0;#X done;#P newex 210 358 34 196617 bendin;#P newex 122 358 40 196617 notein;#P newex 166 358 40 196617 ctlin;#P newex 81 358 35 196617 midiin;#P newex 86 193 48 196617 switch 2;#P flonum 86 271 34 9 0 0 0 3 0 0 0 221 221 221 222 222 222 0 0 0;#P newex 86 216 342 196617 osc-route /c1 /c2 /c3 /c4 /c5 /c6 /c7 /c8 /c9 /c10 /c11 /c12 /c13 /c14 /c15 /c16;#P newex 128 135 45 196617 r to-osc;#P hidden newex 481 40 39 196617 t front;#P hidden inlet 481 22 15 0;#N thispatcher;#Q end;#P hidden newobj 481 62 60 196617 thispatcher;#P window setfont "Sans Serif" 18.;#P comment 11 13 69 196626 HelpMe;#B frgb 255 255 255;#P window setfont "Sans Serif" 9.;#P user com 10 48 448 196617 72;#K set 0 21608 26995 8304 24948 25448 8291 24942 8290 25888 30067 25956 8297 28192 10337 29728 27749 24947 29737 8308 26738 25957 8292 26982 26213 29285 28276 8311 24953 29498 8306 25955 25961 30313 28263 8292 24948 24864 26990 29797 29294 24940 27769 8297 28192 19809 30764 8306 25955 25961 30313 28263 8292 24948 24864 28534 25970 8293 29800 25970 28261 29728 10325 17488 10528 24942 25632 30067 26990 26400 19785 17481 11808;#K end;#B frgb 255 255 255;#P comment 17 112 110 196617 Turn on this to watch incoming data using;#P user panel 6 4 466 84;#X brgb 90 180 150;#X frgb 0 0 0;#X border 0;#X rounded 0;#X shadow 0;#X done;#P comment 20 341 229 196617 Or use your favourite collection of MIDI-objects.;#P user panel 6 91 467 299;#X brgb 255 255 255;#X frgb 90 180 150;#X border 2;#X rounded 0;#X shadow 0;#X done;#P connect 17 0 12 0;#P connect 12 0 10 0;#P connect 10 0 11 0;#P fasten 9 0 12 1 133 180 110 180;#P connect 10 1 29 0;#P fasten 38 0 12 2 185 185 129 185;#P connect 10 2 21 0;#P connect 10 3 30 0;#P connect 10 4 22 0;#P connect 10 5 31 0;#P connect 10 6 23 0;#P connect 10 7 32 0;#P connect 10 8 24 0;#P connect 10 9 33 0;#P hidden connect 41 0 40 0;#P connect 10 10 25 0;#P hidden connect 40 0 42 0;#P hidden connect 39 0 42 0;#P connect 10 11 34 0;#P connect 10 12 26 0;#P connect 10 13 35 0;#P connect 10 14 27 0;#P connect 10 15 36 0;#P connect 10 16 28 0;#P hidden connect 7 0 8 0;#P hidden connect 8 0 6 0;#P pop;#P hidden newobj 665 57 48 196617 p helpme;#P hidden newex 228 591 134 196617 autopattr mgt @autoname 0;#X prestore jsui 1 0 0;#X prestore number 1 0 3;#X prestore number[10] 1 0 14;#X prestore number[11] 1 0 15;#X prestore number[12] 1 0 16;#X prestore number[13] 1 0 17;#X prestore number[14] 1 0 18;#X prestore number[15] 1 0 19;#X prestore number[16] 1 0 4;#X prestore number[17] 1 0 2;#X prestore number[18] 1 0 0;#X prestore number[19] 1 0 0;#X prestore number[1] 1 0 4;#X prestore number[20] 1 0 0;#X prestore number[21] 1 0 0;#X prestore number[2] 1 0 5;#X prestore number[3] 1 0 6;#X prestore number[4] 1 0 8;#X prestore number[5] 1 0 9;#X prestore number[6] 1 0 10;#X prestore number[7] 1 0 11;#X prestore number[8] 1 0 12;#X prestore number[9] 1 0 13;#X prestore toggle 1 0 1;#X prestore toggle[1] 1 0 0;#X prestore toggle[2] 1 0 1;#X prestore ubumenu 1 0 Trackpad;#X prestore ubumenu[1] 1 0 "AU DLS Synth 1";#P objectname mgt;#P message 510 17 43 196617 ReadMe;#N vpatcher 249 145 676 421;#P window setfont "Sans Serif" 9.;#N thispatcher;#Q end;#P hidden newobj 46 254 60 196617 thispatcher;#P hidden newex 110 254 45 196617 loadbang;#P hidden message 23 206 169 196617 window flags nogrow \, window exec;#P hidden message 23 223 159 196617 window flags grow \, window exec;#P hidden newex 419 169 39 196617 t front;#P hidden inlet 419 148 15 0;#N thispatcher;#Q end;#P hidden newobj 419 194 60 196617 thispatcher;#P hidden newex 419 216 99 196617 bgcolor 90 180 150;#P window setfont "Sans Serif" 18.;#P comment 11 13 152 196626 arj.MultiControl;#B frgb 255 255 255;#P window setfont "Sans Serif" 9.;#P comment 161 22 111 196617 v0.3 - 02.05.2007;#B frgb 255 255 255;#P user com 11 46 399 196617 399;#K set 0 16748 25976 24942 25701 29216 21093 26227 30061 8266 25966 29541 28265 30067 11296 19829 29545 25441 27680 18277 29556 30066 25971 8263 29295 30064 11296 21870 26998 25970 29545 29817 8303 26144 20339 27759 3341 18798 29552 26994 25956 8290 31008 19061 28280 26991 28192 26226 28525 8275 29797 26989 8289 28260 8272 13600 18284 28534 25888 19817 25705 8257 29555 26983 28261 29216 25209 8260 24942 8268 25960 29289 25448 11789 17013 26988 29728 30569 29800 8269 24952 12109 21328 8290 31008 17273 25452 26990 26400 10039 13356 8309 29545 28263 8293 30836 25970 28257 27680 28514 27237;#K set 100 25460 29472 25209 8269 24948 29728 22386 26983 26740 8289 28260 8272 25972 25970 8261 27763 25953 11776 3341 16750 8289 29812 25965 28788 8308 28448 28001 27493 8289 8307 26989 28780 25900 8310 25970 29537 29801 27749 8289 28260 8309 28265 30309 29299 24940 8308 28527 27746 28536 8294 28530 8301 24939 26990 26400 28021 29545 25376 30569 29800 8296 30061 24942 8297 28276 25970 26209 25445 8292 25974 26979 25971 8232 18505 17449 11808 21093 24932 29472 25697 29793 8294 29295 27936 24942 31008 17513 29285 25460 18798 28789 29728 25455 28016 24948 26978 27749 8292 25974 26979;#K set 200 25888 10342 28530 8293 30817 28016 27749 8295 24941 25888 25455 28276 29295 27756 25970 29481 8289 28260 8303 30068 28789 29811 8293 26996 26725 29216 28271 29293 24940 26995 25956 8232 12334 11569 11817 8271 28773 28243 28533 28260 17263 28276 29295 27680 10319 21315 10528 25697 29793 8303 29216 19785 17481 8297 28262 28530 28001 29801 28526 8289 29472 28271 29797 28533 29740 8291 29804 28533 29728 28530 8290 25966 25711 30068 8301 25971 29537 26469 29486 8205 3394 28532 26656 29800 25888 25705 29539 28534 25970 31008 24942 25632 28271 29293 24940 26995 24948 26991 28192 28518;#K set 300 8293 30309 29305 8290 30068 29807 28204 8307 27753 25701 29216 28530 8298 28537 29556 26979 27424 28526 8308 26725 8292 25974 26979 25888 24946 25888 24932 27253 29556 25956 8292 31086 24941 26979 24940 27769 11808 21608 30067 8297 29728 26995 8302 25955 25971 29537 29305 8308 28448 28015 30309 8293 30309 29305 8291 28526 29810 28524 27749 29216 24864 25455 30064 27749 8303 26144 29801 28005 29472 29557 25448 8308 26721 29728 29800 25888 28769 29795 26656 25441 28192 24932 27253 29556 8297 29811 25964 26144 29807 8308 26725 8302 25975 8293 29045 26992 28005 28276 11808;#K end;#B frgb 255 255 255;#P hidden connect 9 0 8 0;#P hidden connect 8 0 10 0;#P hidden connect 7 0 10 0;#P hidden connect 5 0 6 0;#P hidden connect 6 0 4 0;#P pop;#P hidden newobj 612 57 50 196617 p readme;#P hidden newex 717 321 49 196617 deferlow;#P hidden newex 717 300 45 196617 loadbang;#P hidden newex 728 415 261 196617 spray 20;#P hidden newex 728 390 29 196617 pack;#P hidden newex 728 368 27 196617 - 1;#P objectname -;#P hidden newex 717 342 40 196617 uzi 16;#P bpatcher 15 231 605 24 0 0 arj.min-max-scaling.mxt 0;#P objectname arj.min-max-scaling.pat[16];#P bpatcher 15 252 605 24 0 0 arj.min-max-scaling.mxt 0;#P objectname arj.min-max-scaling.pat[1];#P bpatcher 15 273 605 24 0 0 arj.min-max-scaling.mxt 0;#P objectname arj.min-max-scaling.pat[2];#P bpatcher 15 294 605 24 0 0 arj.min-max-scaling.mxt 0;#P objectname arj.min-max-scaling.pat[3];#P bpatcher 15 315 605 24 0 0 arj.min-max-scaling.mxt 0;#P objectname arj.min-max-scaling.pat[4];#P bpatcher 15 336 605 24 0 0 arj.min-max-scaling.mxt 0;#P objectname arj.min-max-scaling.pat[5];#P bpatcher 15 357 605 24 0 0 arj.min-max-scaling.mxt 0;#P objectname arj.min-max-scaling.pat[6];#P bpatcher 15 378 605 24 0 0 arj.min-max-scaling.mxt 0;#P objectname arj.min-max-scaling.pat[7];#P comment 536 50 45 196617 note dur;#B frgb 255 255 255;#P comment 304 48 42 196617 MIDI on;#B frgb 255 255 255;#P toggle 291 48 13 0;#P objectname toggle[1];#P toggle 108 48 13 0;#P objectname toggle;#P comment 385 50 58 196617 MIDI Range;#B frgb 255 255 255;#P comment 468 50 38 196617 values;#B frgb 255 255 255;#P comment 574 50 42 196617 channel;#B frgb 255 255 255;#P comment 503 50 34 196617 ctl no;#B frgb 255 255 255;#P comment 150 492 61 196617 MIDI device;#N vpatcher 225 218 659 420;#P window setfont "Sans Serif" 9.;#P hidden message 356 135 44 196617 port \$1;#P hidden newex 274 132 61 196617 pak 0 0 0 0;#P hidden newex 179 132 60 196617 pak 0 0 0 0;#P number 297 87 29 9 0 255 35 3 0 0 0 221 221 221 222 222 222 0 0 0;#P number 258 87 29 9 0 255 35 3 0 0 0 221 221 221 222 222 222 0 0 0;#P number 218 87 29 9 0 255 35 3 0 0 0 221 221 221 222 222 222 0 0 0;#P number 179 87 29 9 0 255 35 3 0 0 0 221 221 221 222 222 222 0 0 0;#P window setfont "Sans Serif" 24.;#P comment 285 77 15 196632 .;#P comment 246 77 15 196632 .;#P comment 206 77 15 196632 .;#P window setfont "Sans Serif" 9.;#P hidden newex 274 161 143 196617 sprintf host %ld.%ld.%ld.%ld;#P window setfont "Sans Serif" 18.;#P comment 18 28 161 196626 Network settings;#B frgb 255 255 255;#P hidden inlet 79 69 15 0;#P window setfont "Sans Serif" 9.;#P hidden newex 482 88 39 196617 t front;#P hidden inlet 482 67 15 0;#N thispatcher;#Q end;#P hidden newobj 482 113 60 196617 thispatcher;#P hidden newex 482 135 99 196617 bgcolor 90 180 150;#P toggle 79 89 15 0;#P hidden newex 79 143 27 196617 gate;#P comment 329 90 29 196617 Port;#P hidden message 179 63 26 196617 255;#P hidden message 356 61 33 196617 5678;#P hidden newex 235 36 49 196617 deferlow;#P hidden newex 235 15 45 196617 loadbang;#P number 356 88 43 9 0 0 32 3 0 0 0 221 221 221 222 222 222 0 0 0;#P hidden newex 274 185 156 196617 udpsend 255.255.255.255 5678;#P hidden newex 96 117 45 196617 r to-osc;#P comment 114 90 69 196617 Receiver's IP;#P comment 19 90 60 196617 Network on;#N thispatcher;#Q end;#P hidden newobj 74 205 60 196617 thispatcher;#P hidden newex 90 224 45 196617 loadbang;#P hidden message 41 167 169 196617 window flags nogrow \, window exec;#P hidden message 41 184 159 196617 window flags grow \, window exec;#P comment 48 114 355 196617 Type a IP-address you want to send to \, or use broadcast (255.255.255.255);#P hidden connect 3 0 2 0;#P hidden connect 2 0 4 0;#P hidden connect 1 0 4 0;#P hidden connect 21 0 16 0;#P hidden connect 16 0 15 0;#P hidden connect 7 0 15 1;#P hidden fasten 11 0 13 0 240 60 184 60;#P hidden fasten 13 0 27 0 184 82 184 82;#P hidden connect 27 0 31 0;#P hidden connect 28 0 31 1;#P hidden connect 29 0 31 2;#P hidden fasten 13 0 28 0 184 82 223 82;#P hidden connect 30 0 31 3;#P hidden connect 10 0 11 0;#P hidden fasten 13 0 29 0 184 82 263 82;#P hidden connect 27 0 32 0;#P hidden connect 32 0 23 0;#P hidden fasten 15 0 8 0 84 181 279 181;#P hidden connect 23 0 8 0;#P hidden connect 33 0 8 0;#P hidden connect 28 0 32 1;#P hidden fasten 13 0 30 0 184 82 302 82;#P hidden connect 29 0 32 2;#P hidden connect 30 0 32 3;#P hidden fasten 11 0 12 0 240 59 361 59;#P hidden connect 12 0 9 0;#P hidden connect 9 0 33 0;#P hidden connect 19 0 20 0;#P hidden connect 20 0 18 0;#P pop;#P hidden newobj 88 551 62 196617 p OSC-stuff;#P hidden newex 211 516 55 196617 s midiport;#P user ubumenu 208 490 151 196617 0 1 1 0;#X setrgb 31 31 31 225 220 220 234 234 234 4 4 4 141 141 141 112 112 112;#X add "AU DLS Synth 1";#X add "from MaxMSP 1";#X add "from MaxMSP 2";#X prefix_set 0 0 <none> 0;#X pattrmode 1;#P objectname ubumenu[1];#N vpatcher 366 138 644 425;#P outlet 119 256 15 0;#P window setfont "Sans Serif" 9.;#P newex 61 194 42 196617 lchange;#P newex 119 231 33 196617 zl len;#P newex 167 212 20 196617 t b;#P newex 167 233 75 196617 s reset-scaling;#P newex 167 147 39 196617 t clear;#P newex 167 127 55 196617 r clear-all;#P outlet 61 252 15 0;#P inlet 44 26 15 0;#P newex 61 220 51 196617 listfunnel;#P newex 61 106 20 196617 t b;#P newex 61 83 75 196617 speedlim 1000;#P newex 79 127 59 196617 loadmess 1;#P newex 44 60 55 196617 unpack 0 0;#P toggle 78 147 15 0;#P newex 61 168 27 196617 lreg;#P connect 7 0 2 0;#P connect 2 0 4 0;#P connect 4 0 5 0;#P fasten 2 0 0 0 49 162 66 162;#P connect 5 0 0 0;#P connect 0 0 14 0;#P connect 14 0 6 0;#P connect 6 0 8 0;#P connect 3 0 1 0;#P fasten 10 0 0 1 172 166 83 166;#P connect 1 0 0 1;#P fasten 14 0 13 0 66 216 124 216;#P connect 13 0 15 0;#P connect 9 0 10 0;#P connect 14 0 12 0;#P connect 12 0 11 0;#P pop;#P hidden newobj 861 26 74 196617 p check-things;#P hidden newex 943 133 50 196617 arj.route;#P hidden newex 903 133 50 196617 arj.route;#P hidden newex 863 133 50 196617 arj.route;#P hidden newex 823 133 50 196617 arj.route;#P comment 17 50 31 196617 Input;#B frgb 255 255 255;#P hidden newex 121 592 99 196617 bgcolor 90 180 150;#P bpatcher 15 63 605 24 0 0 arj.min-max-scaling.mxt 0;#P objectname arj.min-max-scaling.pat[8];#P comment 206 50 27 196617 max;#B frgb 255 255 255;#P comment 175 50 24 196617 min;#B frgb 255 255 255;#P comment 245 50 38 196617 values;#B frgb 255 255 255;#P hidden newex 783 133 50 196617 arj.route;#P hidden newex 729 133 50 196617 arj.route;#P hidden newex 1143 102 50 196617 arj.route;#P hidden newex 1090 102 50 196617 arj.route;#P hidden newex 1025 103 50 196617 arj.route;#P hidden newex 985 103 50 196617 arj.route;#P hidden newex 945 103 50 196617 arj.route;#P hidden newex 905 103 50 196617 arj.route;#P hidden newex 865 103 50 196617 arj.route;#P hidden newex 825 103 50 196617 arj.route;#P hidden newex 785 103 50 196617 arj.route;#P hidden number 1116 71 18 9 0 0 160 3 0 0 0 221 221 221 222 222 222 0 0 0;#P objectname number[15];#P hidden number 1099 71 18 9 0 0 160 3 0 0 0 221 221 221 222 222 222 0 0 0;#P objectname number[14];#P hidden number 1082 71 18 9 0 0 160 3 0 0 0 221 221 221 222 222 222 0 0 0;#P objectname number[13];#P hidden number 1065 71 18 9 0 0 160 3 0 0 0 221 221 221 222 222 222 0 0 0;#P objectname number[12];#P hidden number 1048 71 18 9 0 0 160 3 0 0 0 221 221 221 222 222 222 0 0 0;#P objectname number[11];#P hidden number 1031 71 18 9 0 0 160 3 0 0 0 221 221 221 222 222 222 0 0 0;#P objectname number[10];#P hidden number 1014 71 18 9 0 0 160 3 0 0 0 221 221 221 222 222 222 0 0 0;#P objectname number[9];#P hidden number 997 71 18 9 0 0 160 3 0 0 0 221 221 221 222 222 222 0 0 0;#P objectname number[8];#P hidden number 980 71 18 9 0 0 160 3 0 0 0 221 221 221 222 222 222 0 0 0;#P objectname number[7];#P hidden number 963 71 18 9 0 0 160 3 0 0 0 221 221 221 222 222 222 0 0 0;#P objectname number[6];#P hidden number 946 71 18 9 0 0 160 3 0 0 0 221 221 221 222 222 222 0 0 0;#P objectname number[5];#P hidden number 929 71 18 9 0 0 160 3 0 0 0 221 221 221 222 222 222 0 0 0;#P objectname number[4];#P hidden number 912 71 18 9 0 0 160 3 0 0 0 221 221 221 222 222 222 0 0 0;#P objectname number[3];#P hidden number 895 71 18 9 0 0 160 3 0 0 0 221 221 221 222 222 222 0 0 0;#P objectname number[2];#P hidden number 878 71 18 9 0 0 160 3 0 0 0 221 221 221 222 222 222 0 0 0;#P objectname number[1];#P hidden number 861 71 18 9 0 0 160 3 0 0 0 221 221 221 222 222 222 0 0 0;#P objectname number;#P hidden newex 861 48 351 196617 spray 20;#P hidden newex 731 103 50 196617 arj.route;#P user ubumenu 355 17 148 196617 0 1 1 0;#X setrgb 31 31 31 225 220 220 234 234 234 4 4 4 141 141 141 112 112 112;#X add "Apple IR";#X add "Apple Internal Keyboard / Trackpad";#X add Trackpad;#X add "Trackpad 2";#X add "Trackpad 3";#X add "Apple Internal Keyboard / Trackpad 2";#X prefix_set 0 0 <none> 0;#X pattrmode 1;#P objectname ubumenu;#P hidden newex 816 28 27 196617 hi;#P comment 309 19 50 196617 HI device;#P hidden comment 737 71 135 196617 Incoming controller numbers;#P comment 137 22 38 196617 v0.4;#B frgb 255 255 255;#P comment 119 49 40 196617 OSC on;#B frgb 255 255 255;#P bpatcher 15 84 605 24 0 0 arj.min-max-scaling.mxt 0;#P objectname arj.min-max-scaling.pat[9];#P bpatcher 15 105 605 24 0 0 arj.min-max-scaling.mxt 0;#P objectname arj.min-max-scaling.pat[10];#P bpatcher 15 126 605 24 0 0 arj.min-max-scaling.mxt 0;#P objectname arj.min-max-scaling.pat[11];#P bpatcher 15 147 605 24 0 0 arj.min-max-scaling.mxt 0;#P objectname arj.min-max-scaling.pat[12];#P bpatcher 15 168 605 24 0 0 arj.min-max-scaling.mxt 0;#P objectname arj.min-max-scaling.pat[13];#P bpatcher 15 189 605 24 0 0 arj.min-max-scaling.mxt 0;#P objectname arj.min-max-scaling.pat[14];#P bpatcher 15 210 605 24 0 0 arj.min-max-scaling.mxt 0;#P objectname arj.min-max-scaling.pat[15];#P user panel 308 13 279 25;#X brgb 191 191 191;#X frgb 0 0 0;#X border 1;#X rounded 0;#X shadow 0;#X done;#P comment 37 492 60 196617 Network on;#P user panel 21 486 125 25;#X brgb 191 191 191;#X frgb 0 0 0;#X border 1;#X rounded 0;#X shadow 0;#X done;#P user panel 148 486 214 25;#X brgb 191 191 191;#X frgb 0 0 0;#X border 1;#X rounded 0;#X shadow 0;#X done;#P hidden message 6 514 169 196617 window flags nogrow \, window exec;#P hidden message 6 528 159 196617 window flags grow \, window exec;#P window setfont "Sans Serif" 20.;#P comment 16 10 161 196628 MultiControl;#B frgb 255 255 255;#P window setfont "Sans Serif" 9.;#P window linecount 3;#P hidden comment 1048 212 57 196617 Number of sensors detected;#P hidden connect 97 0 3 0;#P hidden connect 21 0 53 0;#P hidden connect 39 0 14 0;#P hidden connect 40 0 13 0;#P hidden connect 41 0 12 0;#P hidden connect 42 0 11 0;#P hidden connect 43 0 10 0;#P hidden connect 44 0 9 0;#P hidden connect 45 0 8 0;#P hidden connect 46 0 80 0;#P hidden connect 47 0 79 0;#P hidden connect 48 0 78 0;#P hidden connect 49 0 77 0;#P hidden connect 56 0 76 0;#P hidden connect 57 0 75 0;#P hidden connect 58 0 74 0;#P hidden connect 59 0 73 0;#P hidden connect 137 0 132 0;#P hidden connect 138 0 131 0;#P hidden connect 139 0 130 0;#P hidden connect 140 0 129 0;#P hidden connect 2 0 98 0;#P hidden connect 3 0 98 0;#P hidden connect 94 0 63 0;#P hidden connect 92 2 69 0;#P hidden connect 93 0 63 1;#P hidden connect 96 0 61 0;#P hidden fasten 61 1 62 0 283 513 216 513;#P hidden connect 109 0 108 0;#P hidden fasten 106 0 105 0 378 543 291 543;#P hidden fasten 107 0 105 0 463 543 291 543;#P hidden connect 108 0 105 0;#P hidden connect 19 1 20 0;#P hidden connect 92 0 20 0;#P hidden connect 69 0 106 0;#P hidden connect 123 0 118 0;#P hidden connect 118 0 113 0;#P hidden fasten 120 0 119 0 593 632 404 632;#P hidden fasten 113 0 119 0 404 632 404 632;#P hidden fasten 116 0 119 0 435 632 404 632;#P hidden fasten 121 0 119 0 665 632 404 632;#P hidden fasten 127 0 119 0 492 632 404 632;#P hidden fasten 126 0 119 0 546 632 404 632;#P hidden connect 114 0 128 0;#P hidden connect 128 0 114 0;#P hidden connect 114 0 113 1;#P hidden connect 122 0 117 0;#P hidden connect 117 0 115 0;#P hidden connect 115 0 116 0;#P hidden connect 114 0 115 1;#P hidden connect 70 0 107 0;#P hidden connect 124 0 127 0;#P hidden connect 125 0 126 0;#P hidden connect 84 0 53 1;#P hidden connect 84 1 14 1;#P hidden connect 84 2 13 1;#P hidden connect 84 3 12 1;#P hidden connect 84 4 11 1;#P hidden connect 84 5 10 1;#P hidden connect 84 6 9 1;#P hidden connect 84 7 8 1;#P hidden connect 84 8 80 1;#P hidden connect 84 9 79 1;#P hidden connect 84 10 78 1;#P hidden connect 84 11 77 1;#P hidden connect 84 12 76 1;#P hidden connect 84 13 75 1;#P hidden connect 84 14 74 1;#P hidden connect 84 15 73 1;#P hidden connect 84 16 132 1;#P hidden connect 84 17 131 1;#P hidden connect 84 18 130 1;#P hidden connect 84 19 129 1;#P hidden connect 88 0 87 0;#P hidden connect 91 0 90 0;#P hidden connect 86 0 95 0;#P hidden connect 95 0 96 0;#P hidden connect 85 0 86 0;#P hidden connect 86 0 81 0;#P hidden connect 81 2 82 0;#P hidden connect 82 0 83 0;#P hidden connect 83 0 84 0;#P hidden connect 19 0 48 0;#P lcolor 2;#P hidden connect 19 0 21 0;#P lcolor 2;#P hidden connect 81 2 83 1;#P hidden connect 33 0 48 1;#P hidden connect 23 0 21 1;#P hidden connect 19 0 49 0;#P lcolor 2;#P hidden connect 19 0 39 0;#P lcolor 2;#P hidden connect 20 1 19 0;#P hidden connect 92 1 19 0;#P hidden connect 19 0 56 0;#P lcolor 2;#P hidden connect 34 0 49 1;#P hidden connect 19 0 40 0;#P lcolor 2;#P hidden connect 24 0 39 1;#P hidden connect 20 1 100 0;#P hidden connect 100 0 99 0;#P hidden connect 19 0 60 0;#P lcolor 2;#P hidden connect 60 0 22 0;#P hidden connect 22 0 23 0;#P hidden connect 19 0 57 0;#P lcolor 2;#P hidden connect 35 0 56 1;#P hidden connect 19 0 41 0;#P lcolor 2;#P hidden connect 25 0 40 1;#P hidden connect 22 1 24 0;#P hidden connect 22 2 25 0;#P hidden connect 103 0 102 0;#P hidden connect 100 0 101 0;#P hidden connect 102 0 101 0;#P hidden connect 19 0 58 0;#P lcolor 2;#P hidden connect 36 0 57 1;#P hidden connect 19 0 42 0;#P lcolor 2;#P hidden connect 26 0 41 1;#P hidden connect 22 3 26 0;#P hidden connect 22 4 27 0;#P hidden connect 19 0 59 0;#P lcolor 2;#P hidden connect 37 0 58 1;#P hidden connect 19 0 43 0;#P lcolor 2;#P hidden connect 27 0 42 1;#P hidden connect 22 5 28 0;#P hidden connect 22 6 29 0;#P hidden connect 22 7 30 0;#P hidden connect 38 0 59 1;#P hidden connect 19 0 44 0;#P lcolor 2;#P hidden connect 28 0 43 1;#P hidden connect 19 0 137 0;#P lcolor 2;#P hidden connect 22 8 31 0;#P hidden connect 60 1 104 0;#P hidden connect 104 0 110 0;#P hidden connect 22 9 32 0;#P hidden connect 19 0 45 0;#P lcolor 2;#P hidden connect 29 0 44 1;#P hidden connect 19 0 138 0;#P lcolor 2;#P hidden connect 133 0 137 1;#P hidden connect 22 10 33 0;#P hidden connect 22 11 34 0;#P hidden connect 22 12 35 0;#P hidden connect 30 0 45 1;#P hidden connect 134 0 138 1;#P hidden connect 22 13 36 0;#P hidden connect 19 0 46 0;#P lcolor 2;#P hidden connect 19 0 139 0;#P lcolor 2;#P hidden connect 22 14 37 0;#P hidden connect 22 15 38 0;#P hidden connect 31 0 46 1;#P hidden connect 135 0 139 1;#P hidden connect 22 16 133 0;#P hidden connect 19 0 47 0;#P lcolor 2;#P hidden connect 19 0 140 0;#P lcolor 2;#P hidden connect 22 17 134 0;#P hidden connect 22 18 135 0;#P hidden connect 32 0 47 1;#P hidden connect 136 0 140 1;#P hidden connect 22 19 136 0;#P pop;